<svg xmlns="http://www.w3.org/2000/svg" xmlns:xlink="http://www.w3.org/1999/xlink" width="50" zoomAndPan="magnify" viewBox="0 0 37.5 37.499999" height="50" preserveAspectRatio="xMidYMid meet" version="1.0"><defs><clipPath id="8b2a28b449"><path d="M 4 0 L 34.875 0 L 34.875 37.007812 L 4 37.007812 Z M 4 0 " clip-rule="nonzero"/></clipPath></defs><g clip-path="url(#8b2a28b449)"><path fill="#ffffff" d="M 29.828125 19.871094 C 29.878906 25.53125 34.792969 27.414062 34.847656 27.441406 C 34.804688 27.574219 34.0625 30.125 32.257812 32.761719 C 30.699219 35.039062 29.082031 37.308594 26.53125 37.355469 C 24.027344 37.402344 23.222656 35.871094 20.359375 35.871094 C 17.496094 35.871094 16.601562 37.308594 14.230469 37.402344 C 11.769531 37.496094 9.898438 34.9375 8.324219 32.667969 C 5.113281 28.023438 2.65625 19.546875 5.953125 13.820312 C 7.589844 10.980469 10.519531 9.179688 13.695312 9.132812 C 16.109375 9.089844 18.390625 10.757812 19.867188 10.757812 C 21.34375 10.757812 24.113281 8.75 27.027344 9.042969 C 28.246094 9.09375 31.671875 9.539062 33.867188 12.753906 C 33.691406 12.863281 29.785156 15.140625 29.828125 19.871094 M 25.121094 5.972656 C 26.425781 4.390625 27.304688 2.191406 27.066406 0 C 25.183594 0.0742188 22.90625 1.253906 21.554688 2.835938 C 20.34375 4.234375 19.285156 6.472656 19.570312 8.621094 C 21.667969 8.785156 23.8125 7.554688 25.121094 5.972656 " fill-opacity="1" fill-rule="nonzero"/></g></svg>