<svg xmlns="http://www.w3.org/2000/svg" xmlns:xlink="http://www.w3.org/1999/xlink" width="500" zoomAndPan="magnify" viewBox="0 0 375 374.999991" height="500" preserveAspectRatio="xMidYMid meet" version="1.0"><defs><g/></defs><g fill="#000000" fill-opacity="1"><g transform="translate(140.861695, 128.959725)"><g><path d="M 3.519531 -2.367188 C 5.214844 -3.570312 5.445312 -5.421875 4.5625 -6.664062 C 4.164062 -7.226562 3.601562 -7.539062 2.96875 -7.675781 C 2.144531 -7.855469 1.148438 -7.652344 0.0820312 -7.238281 C -1.421875 -6.65625 -2.253906 -6.703125 -2.796875 -7.46875 C -3.425781 -8.355469 -2.972656 -9.503906 -2.066406 -10.148438 C -0.941406 -10.945312 0.046875 -10.671875 0.828125 -10.167969 L 1.285156 -11.128906 C 0.195312 -11.863281 -1.230469 -11.992188 -2.632812 -10.996094 C -4.039062 -10 -4.679688 -8.246094 -3.652344 -6.796875 C -2.816406 -5.621094 -1.5 -5.433594 0.539062 -6.246094 C 2.007812 -6.832031 3.074219 -6.839844 3.703125 -5.957031 C 4.332031 -5.070312 3.921875 -3.902344 2.929688 -3.199219 C 1.773438 -2.378906 0.707031 -2.597656 -0.390625 -3.296875 L -0.871094 -2.351562 C 0.523438 -1.410156 2.039062 -1.316406 3.519531 -2.367188 Z M 3.519531 -2.367188 "/></g></g></g><g fill="#000000" fill-opacity="1"><g transform="translate(154.245131, 120.439765)"><g><path d="M 3.660156 -11.71875 L 3.269531 -12.644531 L -2.710938 -10.117188 L 1.332031 -0.5625 L 7.359375 -3.109375 L 6.964844 -4.039062 L 1.9375 -1.914062 L 0.472656 -5.378906 L 5.023438 -7.300781 L 4.632812 -8.230469 L 0.0820312 -6.304688 L -1.316406 -9.613281 Z M 3.660156 -11.71875 "/></g></g></g><g fill="#000000" fill-opacity="1"><g transform="translate(169.378412, 114.639545)"><g><path d="M 0.0546875 -10.484375 L -1.074219 -10.324219 L 3.582031 -0.503906 L 4.761719 -0.667969 L 6.28125 -9.871094 L 10.261719 -1.4375 L 11.46875 -1.609375 L 13.253906 -12.332031 L 12.164062 -12.179688 L 10.691406 -3.039062 L 10.664062 -3.035156 L 6.707031 -11.414062 L 5.488281 -11.246094 L 3.992188 -2.152344 L 3.964844 -2.148438 Z M 0.0546875 -10.484375 "/></g></g></g><g fill="#000000" fill-opacity="1"><g transform="translate(191.805506, 112.828431)"><g><path d="M 1.144531 0.148438 L 2.617188 -2.328125 L 8.226562 -1.589844 L 8.996094 1.183594 L 10.140625 1.332031 L 7.054688 -9.535156 L 5.832031 -9.695312 L 0.0390625 0.00390625 Z M 7.9375 -2.632812 L 3.15625 -3.261719 L 6.277344 -8.5 Z M 7.9375 -2.632812 "/></g></g></g><g fill="#000000" fill-opacity="1"><g transform="translate(209.249714, 116.046335)"><g><path d="M 3.863281 -3.019531 L 5.84375 -2.265625 L 7.203125 2.75 L 8.441406 3.222656 L 7.011719 -2.015625 C 8.527344 -1.648438 10.097656 -2.117188 10.730469 -3.773438 C 11.304688 -5.285156 10.765625 -6.992188 8.402344 -7.894531 L 5.050781 -9.175781 L 1.347656 0.515625 L 2.363281 0.902344 Z M 4.214844 -3.949219 L 5.699219 -7.835938 L 7.976562 -6.964844 C 9.820312 -6.261719 10.050781 -5.082031 9.6875 -4.128906 C 9.316406 -3.152344 8.226562 -2.417969 6.46875 -3.089844 Z M 4.214844 -3.949219 "/></g></g></g><g fill="#000000" fill-opacity="1"><g transform="translate(224.828484, 122.870137)"><g><path d="M 7.0625 -7.734375 L 1.191406 0.816406 L 3.734375 2.5625 C 6.238281 4.28125 9.445312 3.914062 11.191406 1.367188 C 12.851562 -1.046875 12.273438 -4.15625 9.605469 -5.988281 Z M 2.664062 0.589844 L 7.378906 -6.277344 L 8.984375 -5.175781 C 11.214844 -3.648438 11.597656 -1.210938 10.25 0.753906 C 8.878906 2.753906 6.441406 3.1875 4.28125 1.699219 Z M 2.664062 0.589844 "/></g></g></g><g fill="#000000" fill-opacity="1"><g transform="translate(123.129019, 241.500553)"><g><path d="M 4.035156 4.28125 C 5.816406 6.097656 8.082031 6.105469 9.597656 5.402344 L 9.246094 4.375 C 7.746094 5.042969 6.136719 4.949219 4.804688 3.585938 C 3.164062 1.910156 3.265625 -0.601562 5.027344 -2.324219 C 6.820312 -4.074219 9.347656 -3.953125 10.886719 -2.378906 C 12.394531 -0.835938 12.207031 0.867188 11.59375 2.058594 L 12.601562 2.445312 C 13.386719 0.992188 13.421875 -1.261719 11.640625 -3.082031 C 9.660156 -5.109375 6.441406 -5.296875 4.183594 -3.089844 C 1.949219 -0.90625 2.035156 2.234375 4.035156 4.28125 Z M 4.035156 4.28125 "/></g></g></g><g fill="#000000" fill-opacity="1"><g transform="translate(138.335611, 255.249911)"><g><path d="M 2.679688 0.503906 L 7.71875 -7.375 L 6.804688 -7.960938 L 1.214844 0.777344 L 6.273438 4.011719 L 6.820312 3.152344 Z M 2.679688 0.503906 "/></g></g></g><g fill="#000000" fill-opacity="1"><g transform="translate(153.261429, 263.772346)"><g><path d="M 12.242188 -1.25 C 13.214844 -4.039062 11.875 -6.949219 9.074219 -7.929688 C 6.234375 -8.921875 3.359375 -7.441406 2.375 -4.628906 C 1.402344 -1.839844 2.742188 1.070312 5.542969 2.050781 C 8.382812 3.042969 11.257812 1.5625 12.242188 -1.25 Z M 11.15625 -1.558594 C 10.390625 0.628906 8.167969 1.886719 5.917969 1.101562 C 3.640625 0.304688 2.6875 -2.105469 3.460938 -4.320312 C 4.226562 -6.507812 6.449219 -7.765625 8.699219 -6.980469 C 10.976562 -6.183594 11.925781 -3.761719 11.15625 -1.558594 Z M 11.15625 -1.558594 "/></g></g></g><g fill="#000000" fill-opacity="1"><g transform="translate(173.776805, 269.545978)"><g><path d="M 4.648438 -8.941406 L 3.730469 0.367188 L 4.824219 0.476562 L 5.742188 -8.832031 L 9.183594 -8.492188 L 9.285156 -9.507812 L 1.296875 -10.296875 L 1.195312 -9.28125 Z M 4.648438 -8.941406 "/></g></g></g><g fill="#000000" fill-opacity="1"><g transform="translate(191.798781, 270.358345)"><g><path d="M 2.507812 -0.339844 L 1.875 -5.039062 L 7.730469 -5.828125 L 8.363281 -1.128906 L 9.441406 -1.273438 L 8.054688 -11.554688 L 6.976562 -11.410156 L 7.589844 -6.867188 L 1.734375 -6.074219 L 1.121094 -10.617188 L 0.0429688 -10.472656 L 1.429688 -0.191406 Z M 2.507812 -0.339844 "/></g></g></g><g fill="#000000" fill-opacity="1"><g transform="translate(211.669109, 266.368068)"><g><path d="M 2.386719 -0.835938 L -1.042969 -10.625 L -2.070312 -10.265625 L 1.363281 -0.476562 Z M 2.386719 -0.835938 "/></g></g></g><g fill="#000000" fill-opacity="1"><g transform="translate(224.041632, 261.412268)"><g><path d="M 8.476562 -5.109375 L 3.121094 -13.992188 L 2.199219 -13.441406 L 6.675781 -6.019531 L -3.042969 -10.277344 L -4.121094 -9.628906 L 1.238281 -0.746094 L 2.15625 -1.300781 L -2.40625 -8.867188 L 7.476562 -4.507812 Z M 8.476562 -5.109375 "/></g></g></g><g fill="#000000" fill-opacity="1"><g transform="translate(241.266285, 249.621573)"><g><path d="M 2.15625 -12.675781 C 0.6875 -13.394531 -1.523438 -13.410156 -3.324219 -11.574219 C -5.410156 -9.449219 -5.316406 -6.214844 -3.179688 -4.121094 C -1.058594 -2.042969 2.003906 -1.894531 4.203125 -4.132812 C 6.320312 -6.289062 6.097656 -9.070312 4.222656 -10.90625 L 3.941406 -11.1875 L 0.0898438 -7.261719 L 0.808594 -6.554688 L 3.84375 -9.648438 C 5.167969 -8.179688 4.785156 -6.183594 3.496094 -4.867188 C 1.722656 -3.0625 -0.753906 -3.320312 -2.4375 -4.96875 C -4.222656 -6.722656 -4.164062 -9.246094 -2.605469 -10.832031 C -1.082031 -12.382812 0.59375 -12.222656 1.789062 -11.664062 Z M 2.15625 -12.675781 "/></g></g></g><g fill="#000000" fill-opacity="1"><g transform="translate(202.287698, 206.464903)"><g><path d="M 34.890625 -2.96875 C 33.609375 -2.125 31.988281 -1.34375 30.03125 -0.625 C 28.070312 0.0820312 25.9375 0.4375 23.625 0.4375 C 19.5625 0.4375 15.984375 -0.457031 12.890625 -2.25 C 9.796875 -4.050781 7.414062 -6.46875 5.75 -9.5 C 4.082031 -12.539062 3.25 -15.894531 3.25 -19.5625 C 3.25 -23.476562 4.085938 -27.003906 5.765625 -30.140625 C 7.453125 -33.273438 9.785156 -35.726562 12.765625 -37.5 C 15.753906 -39.28125 19.140625 -40.171875 22.921875 -40.171875 C 25.148438 -40.171875 27.234375 -39.875 29.171875 -39.28125 C 31.117188 -38.695312 32.863281 -37.929688 34.40625 -36.984375 L 32.25 -31.984375 C 29.21875 -34.035156 26.160156 -35.0625 23.078125 -35.0625 C 20.515625 -35.0625 18.140625 -34.382812 15.953125 -33.03125 C 13.773438 -31.675781 12.035156 -29.832031 10.734375 -27.5 C 9.441406 -25.175781 8.796875 -22.625 8.796875 -19.84375 C 8.796875 -16.976562 9.390625 -14.390625 10.578125 -12.078125 C 11.765625 -9.773438 13.46875 -7.972656 15.6875 -6.671875 C 17.90625 -5.367188 20.460938 -4.71875 23.359375 -4.71875 C 26.910156 -4.71875 30.003906 -5.726562 32.640625 -7.75 Z M 34.890625 -2.96875 "/></g></g></g><g fill="#000000" fill-opacity="1"><g transform="translate(137.976607, 206.464903)"><g><path d="M 26.265625 -32.640625 C 24.835938 -33.410156 23.316406 -34.03125 21.703125 -34.5 C 20.085938 -34.976562 18.566406 -35.21875 17.140625 -35.21875 C 14.984375 -35.21875 13.269531 -34.734375 12 -33.765625 C 10.738281 -32.796875 10.109375 -31.46875 10.109375 -29.78125 C 10.109375 -28.132812 10.847656 -26.785156 12.328125 -25.734375 C 13.816406 -24.691406 15.9375 -23.660156 18.6875 -22.640625 C 20.738281 -21.910156 22.46875 -21.113281 23.875 -20.25 C 25.289062 -19.382812 26.460938 -18.191406 27.390625 -16.671875 C 28.328125 -15.148438 28.796875 -13.21875 28.796875 -10.875 C 28.796875 -8.75 28.265625 -6.828125 27.203125 -5.109375 C 26.140625 -3.390625 24.628906 -2.035156 22.671875 -1.046875 C 20.710938 -0.0546875 18.410156 0.4375 15.765625 0.4375 C 13.316406 0.4375 10.957031 0.046875 8.6875 -0.734375 C 6.414062 -1.523438 4.414062 -2.523438 2.6875 -3.734375 L 5.0625 -7.96875 C 6.414062 -6.9375 8.039062 -6.0625 9.9375 -5.34375 C 11.84375 -4.632812 13.625 -4.28125 15.28125 -4.28125 C 17.40625 -4.28125 19.265625 -4.828125 20.859375 -5.921875 C 22.453125 -7.023438 23.25 -8.660156 23.25 -10.828125 C 23.25 -12.660156 22.578125 -14.113281 21.234375 -15.1875 C 19.898438 -16.269531 18.023438 -17.289062 15.609375 -18.25 C 13.367188 -19.09375 11.503906 -19.914062 10.015625 -20.71875 C 8.535156 -21.519531 7.265625 -22.625 6.203125 -24.03125 C 5.140625 -25.445312 4.609375 -27.21875 4.609375 -29.34375 C 4.609375 -32.457031 5.695312 -34.972656 7.875 -36.890625 C 10.0625 -38.816406 12.894531 -39.835938 16.375 -39.953125 C 20.664062 -39.953125 24.640625 -38.890625 28.296875 -36.765625 Z M 26.265625 -32.640625 "/></g></g></g><path stroke-linecap="butt" transform="matrix(0.000000000000000046, -0.749107, 0.75, 0.000000000000000046, 186.746858, 231.803538)" fill="none" stroke-linejoin="miter" d="M -0.00153399 0.998981 L 118.14953 0.998981 " stroke="#000000" stroke-width="2" stroke-opacity="1" stroke-miterlimit="4"/></svg>